# xmcd CD database file
#
# Track frame offsets:
#	150
#	13000
#	22125
#	35470
#	51020
#	64125
#	80590
#	90130
#	101220
#	112810
#	125945
#	137390
#	156145
#	177912
#	196967
#
# Disc length: 2820 seconds
#
# Revision: 3
# Processed by: cddbd v1.5.2PL0 Copyright (c) Steve Scherf et al.
# Submitted via: CDex 1.51
#
DISCID=c20b020f
DTITLE=Fleetwood Mac - Blues With A Feeling
DYEAR=1989
DGENRE=Blues Rock
TTITLE0=Albatross
TTITLE1=Preachin' The Blues
TTITLE2=Blues With A Feelin'
TTITLE3=Tallahassee Lassie
TTITLE4=Man Of The World
TTITLE5=Jumping At Shadows
TTITLE6=Linda
TTITLE7=Oh Well
TTITLE8=The Sun Is Shining
TTITLE9=Only You
TTITLE10=I Need Your Love
TTITLE11=You're A Mean Mistreater, Mama
TTITLE12=Whole Lotta Love
TTITLE13=Talk With You
TTITLE14=Mean Old World
EXTD=YEAR: 1989
EXTT0=
EXTT1=
EXTT2=
EXTT3=
EXTT4=
EXTT5=
EXTT6=
EXTT7=
EXTT8=
EXTT9=
EXTT10=
EXTT11=
EXTT12=
EXTT13=
EXTT14=
PLAYORDER=
